<?xml version="1.0" encoding="UTF-8"?>
<!DOCTYPE svg PUBLIC "-//W3C//DTD SVG 1.1//EN" "http://www.w3.org/Graphics/SVG/1.1/DTD/svg11.dtd">
<!-- Creator: CorelDRAW 2018 (64-Bit) -->
<svg xmlns="http://www.w3.org/2000/svg" xml:space="preserve" width="250px" height="56px" version="1.1" style="shape-rendering:geometricPrecision; text-rendering:geometricPrecision; image-rendering:optimizeQuality; fill-rule:evenodd; clip-rule:evenodd"
viewBox="0 0 28.282 6.298"
 xmlns:xlink="http://www.w3.org/1999/xlink">
 <defs>
  <style type="text/css">
   <![CDATA[
    .fil2 {fill:#5D4037;fill-opacity:0.850980}
    .fil0 {fill:#8BC34A;fill-opacity:0.850980}
    .fil3 {fill:#8D6E63;fill-opacity:0.850980}
    .fil4 {fill:#AED581;fill-opacity:0.850980}
    .fil1 {fill:#444444;fill-rule:nonzero;fill-opacity:0.850980}
   ]]>
  </style>
 </defs>
 <g id="Слой_x0020_1">
  <metadata id="CorelCorpID_0Corel-Layer"/>
  <polygon class="fil0" points="2.829,6.1 28.282,6.1 28.282,6.297 2.829,6.297 "/>
  <path class="fil1" d="M13.19 3.478l-1.657 0 0 1.046 1.958 0 0 0.811 -3.013 0 0 -0.752 0.02 -0.019c0.087,-0.083 0.164,-0.176 0.232,-0.277 0.068,-0.101 0.125,-0.211 0.173,-0.328l0 0c0.047,-0.118 0.083,-0.242 0.107,-0.374 0.024,-0.131 0.036,-0.266 0.036,-0.406 0,-0.29 -0.045,-0.553 -0.135,-0.79l0 0c-0.091,-0.239 -0.228,-0.45 -0.41,-0.633 -0.007,-0.008 -0.015,-0.015 -0.023,-0.023l0 -0.77 3.019 0 0 0.812 -1.964 0 0 0.922 1.657 0 0 0.781zm1.493 0.369l0 1.488 -1.054 0 0 -4.372 1.744 0c0.335,0 0.631,0.061 0.888,0.184 0.257,0.123 0.456,0.298 0.598,0.525 0.14,0.227 0.211,0.484 0.211,0.772 0,0.425 -0.153,0.766 -0.458,1.021 -0.306,0.255 -0.724,0.382 -1.257,0.382l-0.672 0zm0 -0.812l0.69 0c0.204,0 0.36,-0.051 0.467,-0.152 0.107,-0.103 0.161,-0.246 0.161,-0.433 0,-0.204 -0.056,-0.367 -0.165,-0.489 -0.11,-0.123 -0.261,-0.184 -0.45,-0.186l-0.703 0 0 1.26zm-5.632 -1.697c0.568,0 1.021,0.17 1.358,0.509 0.337,0.34 0.507,0.784 0.507,1.332 0,0.268 -0.045,0.512 -0.134,0.732 -0.089,0.219 -0.214,0.406 -0.374,0.559 -0.338,0.331 -0.791,0.496 -1.357,0.496l0 0.548 -1.016 0 0 -0.548c-0.573,0 -1.031,-0.165 -1.369,-0.496 -0.338,-0.33 -0.507,-0.758 -0.507,-1.285 0,-0.278 0.045,-0.53 0.135,-0.756 0.09,-0.227 0.216,-0.421 0.378,-0.581 0.341,-0.34 0.796,-0.51 1.363,-0.51l0 -0.553 1.016 0 0 0.553zm-1.054 0.849c-0.263,0 -0.469,0.088 -0.621,0.263 -0.15,0.176 -0.226,0.421 -0.226,0.735 0,0.288 0.076,0.516 0.229,0.683 0.151,0.167 0.371,0.25 0.656,0.25l0 -1.931 -0.038 0zm1.054 0l0 1.931 0.045 0c0.25,0 0.451,-0.082 0.602,-0.247 0.151,-0.165 0.226,-0.396 0.226,-0.692 0,-0.308 -0.073,-0.551 -0.22,-0.727 -0.148,-0.177 -0.365,-0.265 -0.653,-0.265zm16.666 1.66l0 1.488 -1.054 0 0 -4.372 1.745 0c0.334,0 0.63,0.061 0.887,0.184 0.258,0.123 0.456,0.298 0.598,0.525 0.14,0.227 0.211,0.484 0.211,0.772 0,0.425 -0.153,0.766 -0.458,1.021 -0.306,0.255 -0.724,0.382 -1.257,0.382l-0.672 0zm0 -0.812l0.691 0c0.204,0 0.359,-0.051 0.466,-0.152 0.108,-0.103 0.161,-0.246 0.161,-0.433 0,-0.204 -0.055,-0.367 -0.165,-0.489 -0.11,-0.123 -0.26,-0.184 -0.45,-0.186l-0.703 0 0 1.26zm-1.508 0.443l-1.657 0 0 1.046 1.957 0 0 0.811 -3.012 0 0 -4.372 3.018 0 0 0.812 -1.963 0 0 0.922 1.657 0 0 0.781zm-6.185 -2.515l0.976 3.042 0.973 -3.042 1.387 0 0 4.372 -1.056 0 0 -1.021 0.101 -2.089 -1.057 3.11 -0.697 0 -1.059 -3.113 0.102 2.092 0 1.021 -1.054 0 0 -1.726c0.018,-0.015 0.037,-0.029 0.055,-0.045 0.168,-0.14 0.294,-0.304 0.379,-0.493 0.084,-0.187 0.126,-0.396 0.126,-0.627 0,-0.154 -0.019,-0.302 -0.058,-0.443 -0.039,-0.141 -0.096,-0.273 -0.173,-0.397l0 0c-0.077,-0.125 -0.171,-0.235 -0.28,-0.331 -0.016,-0.014 -0.033,-0.028 -0.049,-0.041l0 -0.269 1.384 0z"/>
  <g id="_2294222305072">
   <path class="fil2" d="M1.413 5.398c0.002,-0.09 0.192,-0.421 0.244,-0.501 0.504,-0.779 1.229,-1.332 2.152,-1.573 0.372,-0.097 0.948,-0.182 1.334,-0.151 0.052,0.24 0.028,0.577 -0.014,0.805 -0.079,0.425 -0.299,0.851 -0.585,1.149 -0.48,0.499 -1.081,0.776 -1.86,0.742 -0.253,-0.011 -0.509,-0.078 -0.71,-0.157 -0.223,-0.087 -0.374,-0.183 -0.561,-0.314z"/>
   <path class="fil0" d="M4.071 0.375l-0.021 0.008c-0.143,0.048 -0.185,0.051 -0.316,0.175 -0.151,0.144 -0.185,0.306 -0.294,0.49 -0.105,0.179 -0.184,0.306 -0.336,0.454 -0.165,0.161 -0.407,0.325 -0.711,0.338 -0.275,0.013 -0.504,-0.06 -0.74,-0.171 -0.023,-0.011 -0.068,-0.032 -0.086,-0.046 0.005,-0.029 0.032,-0.052 0.048,-0.069 0.344,-0.359 0.557,-0.484 1.022,-0.686 0.031,-0.013 0.063,-0.021 0.088,-0.034 -0.344,0.036 -0.815,0.257 -1.099,0.425 -0.148,0.088 -0.415,0.265 -0.535,0.388 -0.228,0.234 -0.369,0.377 -0.534,0.693 -0.152,0.29 -0.24,0.568 -0.283,0.947 -0.087,0.759 0.213,1.425 0.563,1.862 0.215,0.27 0.517,0.52 0.848,0.683 0.072,0.036 0.139,0.06 0.213,0.094l0.11 0.042c0.103,0.04 0.143,0.043 0.239,0.066l0.132 0.027c0.387,0.059 0.741,0.055 1.105,-0.045 0.161,-0.044 0.302,-0.094 0.447,-0.163l0.15 -0.078c0.164,-0.08 0.45,-0.312 0.568,-0.431 0.213,-0.215 0.377,-0.453 0.507,-0.722 0.219,-0.455 0.299,-1.047 0.198,-1.556 -0.033,-0.171 -0.078,-0.323 -0.136,-0.474 -0.03,-0.076 -0.106,-0.239 -0.148,-0.31 -0.021,-0.034 -0.039,-0.066 -0.06,-0.1 -0.224,-0.371 -0.558,-0.682 -0.941,-0.896 -0.087,-0.049 -0.342,-0.171 -0.429,-0.186 0.007,-0.045 0.064,-0.142 0.091,-0.172 0.055,0.001 0.218,0.078 0.264,0.099 0.081,0.037 0.163,0.079 0.241,0.126 0.452,0.272 0.818,0.653 1.062,1.137 0.365,0.722 0.402,1.635 0.048,2.391 -0.081,0.174 -0.252,0.464 -0.384,0.615l-0.226 0.239c-0.364,0.335 -0.686,0.515 -1.163,0.661 -0.487,0.15 -1.114,0.132 -1.594,-0.034 -0.209,-0.071 -0.3,-0.102 -0.511,-0.222 -0.267,-0.151 -0.414,-0.278 -0.619,-0.478 -0.094,-0.091 -0.261,-0.299 -0.325,-0.403 -0.143,-0.236 -0.276,-0.466 -0.349,-0.753 -0.049,-0.192 -0.1,-0.405 -0.107,-0.622 -0.015,-0.471 0.046,-0.819 0.221,-1.243 0.051,-0.125 0.194,-0.383 0.261,-0.474 0.193,-0.262 0.286,-0.366 0.527,-0.57 0.131,-0.111 0.091,-0.032 0.147,-0.222 0.052,-0.179 0.132,-0.357 0.224,-0.503 0.471,-0.748 1.3,-0.79 2.109,-0.519 0.091,0.031 0.177,0.067 0.266,0.102 0.059,0.023 0.207,0.087 0.248,0.12z"/>
   <path class="fil3" d="M2.597 3.61c-0.012,0.024 -0.023,0.026 -0.052,0.046l-0.416 0.326c-0.141,0.143 -0.178,0.173 -0.323,0.336 -0.119,0.134 -0.224,0.282 -0.319,0.43 -0.048,0.074 -0.097,0.151 -0.14,0.234 -0.023,0.043 -0.042,0.082 -0.063,0.125 -0.014,0.028 -0.042,0.106 -0.067,0.125 -0.134,-0.146 -0.18,-0.175 -0.306,-0.359 -0.338,-0.496 -0.472,-0.997 -0.404,-1.646 0.007,-0.072 -0.012,-0.058 0.193,-0.056 0.419,0.003 0.777,0.058 1.173,0.158 0.086,0.022 0.169,0.054 0.253,0.08 0.196,0.061 0.3,0.127 0.471,0.201z"/>
   <path class="fil4" d="M1.082 1.25l-0.053 -0.115c-0.018,-0.041 -0.039,-0.08 -0.06,-0.114 -0.051,-0.083 -0.088,-0.136 -0.144,-0.202 -0.195,-0.225 -0.371,-0.258 -0.4,-0.28 0.009,0.018 0.065,0.058 0.081,0.072 0.031,0.028 0.056,0.051 0.085,0.081 0.054,0.056 0.107,0.118 0.152,0.181 0.06,0.086 0.194,0.336 0.186,0.473 -0.313,-0.011 -0.561,-0.113 -0.685,-0.307 -0.081,-0.126 -0.084,-0.222 -0.111,-0.391 -0.047,-0.294 -0.094,-0.269 -0.133,-0.363 0.129,-0.006 0.317,0.044 0.432,0.073 0.131,0.034 0.25,0.098 0.344,0.17 0.153,0.119 0.303,0.454 0.306,0.722z"/>
  </g>
 </g>
</svg>
