<?xml version="1.0" encoding="UTF-8"?>
<!DOCTYPE svg PUBLIC "-//W3C//DTD SVG 1.1//EN" "http://www.w3.org/Graphics/SVG/1.1/DTD/svg11.dtd">
<!-- Creator: CorelDRAW 2018 (64-Bit) -->
<svg xmlns="http://www.w3.org/2000/svg" xml:space="preserve" width="250px" height="56px" version="1.1" style="shape-rendering:geometricPrecision; text-rendering:geometricPrecision; image-rendering:optimizeQuality; fill-rule:evenodd; clip-rule:evenodd"
viewBox="0 0 114.658 25.534"
 xmlns:xlink="http://www.w3.org/1999/xlink">
 <defs>
  <style type="text/css">
   <![CDATA[
    .fil2 {fill:#5D4037}
    .fil0 {fill:#8BC34A}
    .fil3 {fill:#8D6E63}
    .fil4 {fill:#AED581}
    .fil1 {fill:#E6E6E6;fill-rule:nonzero}
   ]]>
  </style>
 </defs>
 <g id="Слой_x0020_1">
  <metadata id="CorelCorpID_0Corel-Layer"/>
  <rect class="fil0" x="11.47" y="24.728" width="103.188" height="0.802"/>
  <path class="fil1" d="M53.475 14.101l-6.718 0 0 4.238 7.936 0 0 3.291 -12.212 0 0 -3.051 0.08 -0.077c0.351,-0.337 0.664,-0.712 0.939,-1.123 0.274,-0.41 0.509,-0.853 0.701,-1.327l0 -0.002c0.192,-0.476 0.337,-0.982 0.434,-1.517 0.097,-0.53 0.145,-1.079 0.145,-1.646 0,-1.173 -0.183,-2.24 -0.548,-3.201l0 -0.002c-0.368,-0.968 -0.921,-1.823 -1.659,-2.565 -0.03,-0.031 -0.061,-0.062 -0.092,-0.092l0 -3.123 12.237 0 0 3.291 -7.961 0 0 3.739 6.718 0 0 3.167zm6.05 1.496l0 6.033 -4.272 0 0 -17.726 7.072 0c1.355,0 2.556,0.249 3.599,0.748 1.043,0.498 1.849,1.205 2.422,2.127 0.57,0.919 0.856,1.962 0.856,3.129 0,1.724 -0.619,3.104 -1.857,4.139 -1.238,1.034 -2.934,1.55 -5.094,1.55l-2.726 0zm0 -3.291l2.8 0c0.827,0 1.459,-0.208 1.891,-0.619 0.436,-0.416 0.653,-0.998 0.653,-1.754 0,-0.827 -0.225,-1.488 -0.67,-1.982 -0.444,-0.499 -1.055,-0.748 -1.824,-0.756l-2.85 0 0 5.111zm-22.831 -6.881c2.303,0 4.139,0.689 5.506,2.065 1.367,1.375 2.053,3.174 2.053,5.397 0,1.089 -0.183,2.078 -0.54,2.967 -0.362,0.889 -0.869,1.646 -1.517,2.269 -1.371,1.342 -3.208,2.011 -5.502,2.011l0 2.219 -4.117 0 0 -2.219c-2.327,0 -4.18,-0.669 -5.552,-2.011 -1.371,-1.338 -2.056,-3.075 -2.056,-5.211 0,-1.126 0.182,-2.148 0.548,-3.066 0.366,-0.919 0.877,-1.704 1.533,-2.352 1.38,-1.38 3.225,-2.069 5.527,-2.069l0 -2.244 4.117 0 0 2.244zm-4.275 3.44c-1.064,0 -1.899,0.357 -2.514,1.068 -0.611,0.715 -0.918,1.708 -0.918,2.979 0,1.168 0.307,2.09 0.926,2.768 0.615,0.677 1.504,1.014 2.664,1.014l0 -7.829 -0.158 0zm4.275 0l0 7.829 0.183 0c1.014,0 1.829,-0.333 2.439,-1.002 0.611,-0.669 0.919,-1.604 0.919,-2.805 0,-1.246 -0.299,-2.231 -0.894,-2.946 -0.598,-0.719 -1.479,-1.076 -2.647,-1.076zm67.565 6.732l0 6.033 -4.272 0 0 -17.726 7.072 0c1.355,0 2.556,0.249 3.599,0.748 1.043,0.498 1.849,1.205 2.422,2.127 0.57,0.919 0.856,1.962 0.856,3.129 0,1.724 -0.619,3.104 -1.857,4.139 -1.238,1.034 -2.934,1.55 -5.094,1.55l-2.726 0zm0 -3.291l2.8 0c0.827,0 1.459,-0.208 1.891,-0.619 0.436,-0.416 0.652,-0.998 0.652,-1.754 0,-0.827 -0.224,-1.488 -0.669,-1.982 -0.444,-0.499 -1.055,-0.748 -1.824,-0.756l-2.85 0 0 5.111zm-6.113 1.795l-6.719 0 0 4.238 7.936 0 0 3.291 -12.212 0 0 -17.726 12.237 0 0 3.291 -7.961 0 0 3.739 6.719 0 0 3.167zm-25.074 -10.197l3.956 12.332 3.943 -12.332 5.626 0 0 17.726 -4.284 0 0 -4.139 0.412 -8.472 -4.284 12.611 -2.826 0 -4.296 -12.624 0.415 8.485 0 4.139 -4.276 0 0 -7c0.077,-0.058 0.152,-0.118 0.225,-0.179 0.68,-0.568 1.192,-1.235 1.535,-2.001 0.341,-0.76 0.512,-1.607 0.512,-2.542 0,-0.625 -0.078,-1.223 -0.234,-1.794 -0.157,-0.572 -0.391,-1.109 -0.702,-1.611l0 -0.002c-0.313,-0.504 -0.692,-0.95 -1.136,-1.34 -0.065,-0.057 -0.132,-0.113 -0.2,-0.168l0 -1.089 5.614 0z"/>
  <g id="_2294234053360">
   <path class="fil2" d="M5.728 21.884c0.01,-0.364 0.778,-1.707 0.988,-2.032 2.045,-3.157 4.984,-5.4 8.726,-6.376 1.507,-0.393 3.845,-0.737 5.408,-0.613 0.21,0.975 0.115,2.34 -0.056,3.262 -0.321,1.725 -1.213,3.454 -2.374,4.661 -1.945,2.024 -4.381,3.146 -7.541,3.007 -1.023,-0.044 -2.059,-0.317 -2.878,-0.636 -0.904,-0.351 -1.516,-0.743 -2.273,-1.273z"/>
   <path class="fil0" d="M16.505 1.52l-0.084 0.035c-0.583,0.191 -0.751,0.205 -1.283,0.709 -0.614,0.581 -0.751,1.238 -1.19,1.986 -0.426,0.724 -0.749,1.24 -1.366,1.84 -0.668,0.65 -1.65,1.316 -2.882,1.371 -1.112,0.05 -2.042,-0.243 -2.998,-0.693 -0.094,-0.044 -0.277,-0.133 -0.348,-0.186 0.018,-0.118 0.128,-0.214 0.194,-0.283 1.394,-1.453 2.256,-1.962 4.141,-2.779 0.128,-0.055 0.258,-0.085 0.358,-0.138 -1.394,0.146 -3.305,1.041 -4.456,1.723 -0.599,0.355 -1.68,1.072 -2.167,1.572 -0.926,0.951 -1.496,1.529 -2.166,2.811 -0.614,1.176 -0.972,2.301 -1.147,3.836 -0.351,3.078 0.864,5.778 2.28,7.55 0.874,1.093 2.097,2.11 3.442,2.771 0.291,0.143 0.563,0.24 0.863,0.38l0.444 0.17c0.419,0.16 0.582,0.173 0.969,0.268l0.537 0.108c1.569,0.242 3.001,0.224 4.48,-0.18 0.65,-0.178 1.222,-0.383 1.809,-0.664l0.61 -0.316c0.664,-0.324 1.823,-1.262 2.304,-1.746 0.863,-0.871 1.528,-1.837 2.052,-2.926 0.888,-1.845 1.213,-4.247 0.806,-6.309 -0.137,-0.695 -0.316,-1.31 -0.554,-1.922 -0.12,-0.309 -0.427,-0.97 -0.599,-1.256 -0.084,-0.139 -0.16,-0.266 -0.243,-0.405 -0.907,-1.505 -2.26,-2.767 -3.815,-3.634 -0.353,-0.197 -1.386,-0.692 -1.741,-0.753 0.03,-0.182 0.262,-0.577 0.371,-0.697 0.222,0.004 0.882,0.314 1.07,0.4 0.329,0.151 0.663,0.321 0.977,0.51 1.833,1.104 3.316,2.649 4.306,4.61 1.479,2.928 1.63,6.63 0.194,9.695 -0.33,0.704 -1.023,1.881 -1.557,2.493l-0.915 0.968c-1.477,1.361 -2.781,2.087 -4.716,2.681 -1.976,0.607 -4.516,0.533 -6.462,-0.137 -0.846,-0.291 -1.216,-0.414 -2.073,-0.901 -1.08,-0.615 -1.678,-1.129 -2.508,-1.938 -0.381,-0.371 -1.059,-1.211 -1.317,-1.635 -0.582,-0.956 -1.121,-1.889 -1.416,-3.053 -0.197,-0.779 -0.405,-1.643 -0.433,-2.523 -0.06,-1.907 0.188,-3.32 0.895,-5.038 0.207,-0.504 0.789,-1.553 1.061,-1.922 0.781,-1.061 1.157,-1.483 2.135,-2.309 0.531,-0.448 0.368,-0.129 0.593,-0.899 0.213,-0.727 0.536,-1.449 0.908,-2.041 1.91,-3.034 5.273,-3.204 8.554,-2.103 0.369,0.124 0.715,0.271 1.078,0.413 0.236,0.093 0.837,0.353 1.005,0.486z"/>
   <path class="fil3" d="M10.527 14.635c-0.049,0.097 -0.092,0.105 -0.209,0.186l-1.687 1.321c-0.573,0.583 -0.72,0.705 -1.308,1.364 -0.486,0.544 -0.911,1.141 -1.296,1.741 -0.193,0.301 -0.392,0.613 -0.568,0.95 -0.092,0.177 -0.169,0.332 -0.254,0.506 -0.056,0.113 -0.169,0.43 -0.27,0.506 -0.543,-0.59 -0.731,-0.706 -1.24,-1.453 -1.371,-2.013 -1.914,-4.042 -1.641,-6.673 0.031,-0.292 -0.046,-0.236 0.784,-0.229 1.697,0.015 3.148,0.237 4.754,0.643 0.349,0.089 0.686,0.218 1.025,0.324 0.796,0.248 1.219,0.515 1.91,0.814z"/>
   <path class="fil4" d="M4.386 5.069l-0.215 -0.467c-0.074,-0.168 -0.156,-0.327 -0.241,-0.464 -0.208,-0.337 -0.357,-0.551 -0.587,-0.817 -0.791,-0.912 -1.504,-1.045 -1.618,-1.136 0.034,0.072 0.262,0.236 0.325,0.292 0.129,0.113 0.228,0.206 0.346,0.328 0.22,0.228 0.432,0.479 0.615,0.736 0.246,0.345 0.787,1.361 0.756,1.915 -1.269,-0.046 -2.275,-0.459 -2.778,-1.243 -0.33,-0.513 -0.342,-0.9 -0.45,-1.584 -0.189,-1.194 -0.38,-1.094 -0.539,-1.473 0.523,-0.026 1.286,0.177 1.751,0.297 0.53,0.138 1.016,0.396 1.393,0.688 0.624,0.482 1.23,1.839 1.242,2.928z"/>
  </g>
 </g>
</svg>
